<svg xmlns="http://www.w3.org/2000/svg" viewBox="0 0 512 512">
  <defs>
    <linearGradient id="bg" x1="0%" y1="0%" x2="100%" y2="100%">
      <stop offset="0%" style="stop-color:#4A90D9"/>
      <stop offset="100%" style="stop-color:#2E5A8B"/>
    </linearGradient>
    <linearGradient id="folder" x1="0%" y1="0%" x2="0%" y2="100%">
      <stop offset="0%" style="stop-color:#FFD966"/>
      <stop offset="100%" style="stop-color:#E6A800"/>
    </linearGradient>
  </defs>
  <!-- Background circle -->
  <circle cx="256" cy="256" r="240" fill="url(#bg)"/>
  <!-- Folder back -->
  <path d="M100 180 L100 380 Q100 400 120 400 L392 400 Q412 400 412 380 L412 200 Q412 180 392 180 L260 180 L230 140 Q220 130 200 130 L120 130 Q100 130 100 150 Z" fill="url(#folder)" opacity="0.7"/>
  <!-- Folder front -->
  <path d="M100 200 L100 380 Q100 400 120 400 L392 400 Q412 400 412 380 L412 220 Q412 200 392 200 Z" fill="url(#folder)"/>
  <!-- Arrow circle -->
  <circle cx="340" cy="320" r="70" fill="#FFFFFF" opacity="0.95"/>
  <!-- Circular arrow -->
  <path d="M340 270 A50 50 0 1 1 300 310" stroke="#2E5A8B" stroke-width="12" fill="none" stroke-linecap="round"/>
  <!-- Arrow head -->
  <polygon points="295,285 295,320 330,302" fill="#2E5A8B"/>
</svg>
